# AST/ASF file generated using VICON BodyLanguage
# -----------------------------------------------
:version 1.10
:name VICON
:units
  mass 1.0
  length 0.45
  angle deg
:documentation
   .ast/.asf automatically generated from VICON data using
   VICON BodyBuilder and BodyLanguage model FoxedUp or BRILLIANT.MOD
:root
   order TX TY TZ RX RY RZ
   axis XYZ
   position 0 0 0  
   orientation 0 0 0 
:bonedata
  begin
     id 1 
     name lhipjoint
     direction 0.710087 -0.641647 0.289942 
     length 2.79038 
     axis 0 0 0  XYZ
  end
  begin
     id 2 
     name lfemur
     direction 0.34202 -0.939693 0  
     length 7.2706  
     axis 0 0 20  XYZ
    dof rx ry rz
    limits (-160.0 20.0)
           (-70.0 70.0)
           (-60.0 70.0)
  end
  begin
     id 3 
     name ltibia
     direction 0.34202 -0.939693 0   
     length 7.86328   
     axis 0 0 20   XYZ
    dof rx
    limits (-10.0 170.0)
  end
  begin
     id 4 
     name lfoot
     direction 0.0541246 -0.148706 0.987399   
     length 2.37542   
     axis -90 7.62852e-016 20   XYZ
    dof rx rz
    limits (-45.0 90.0)
           (-70.0 20.0)
  end
  begin
     id 5 
     name ltoes
     direction 1.53554e-011 -4.21866e-011 1   
     length 1.19593   
     axis -90 7.62852e-016 20   XYZ
    dof rx
    limits (-90.0 20.0)
  end
  begin
     id 6 
     name rhipjoint
     direction -0.675762 -0.671724 0.303533   
     length 2.66544  
     axis 0 0 0  XYZ 
  end
  begin
     id 7 
     name rfemur
     direction -0.34202 -0.939693 0   
     length 8.11844   
     axis 0 0 -20   XYZ
    dof rx ry rz
    limits (-160.0 20.0)
           (-70.0 70.0)
           (-70.0 60.0)
  end
  begin
     id 8 
     name rtibia
     direction -0.34202 -0.939693 0   
     length 7.97082   
     axis 0 0 -20   XYZ
    dof rx
    limits (-10.0 170.0)
 end
 begin
     id 9 
     name rfoot
     direction -0.0726228 -0.199474 0.977208   
     length 2.19677  
     axis -90 -7.62852e-016 -20   XYZ
    dof rx rz
    limits (-45.0 90.0)
           (-20.0 70.0)
  end
  begin
     id 10 
     name rtoes
     direction -1.53508e-011 -4.21913e-011 1   
     length 1.10438   
     axis -90 -7.62852e-016 -20   XYZ
    dof rx
    limits (-90.0 20.0)
  end
  begin
     id 11 
     name lowerback
     direction -0.00404436 0.999673 -0.0252643   
     length 2.03972   
     axis 0 0 0   XYZ
    dof rx ry rz
    limits (-20.0 45.0)
           (-30.0 30.0)
           (-30.0 30.0)
  end
  begin
     id 12 
     name upperback
     direction 0.00744643 0.999969 0.00242763   
     length 2.04273   
     axis 0 0 0   XYZ
    dof rx ry rz
    limits (-20.0 45.0)
           (-30.0 30.0)
           (-30.0 30.0)
  end
  begin
     id 13 
     name thorax
     direction 0.00846113 0.999862 0.0143204   
     length 2.03752   
     axis 0 0 0   XYZ
    dof rx ry rz
    limits (-20.0 45.0)
           (-30.0 30.0)
           (-30.0 30.0)
  end
  begin
     id 14 
     name lowerneck
     direction 0.0328213 0.990857 0.130862   
     length 1.37497   
     axis 0 0 0   XYZ
    dof rx ry rz
    limits (-20.0 45.0)
           (-30.0 30.0)
           (-30.0 30.0)
  end
  begin
     id 15 
     name upperneck
     direction -0.0302832 0.999496 0.00956452   
     length 1.35926   
     axis 0 0 0   XYZ
    dof rx ry rz
    limits (-20.0 45.0)
           (-30.0 30.0)
           (-30.0 30.0)
  end
  begin
     id 16
     name head
     direction -0.0130455 0.999856 -0.0108809  
     length 1.44454  
     axis 0 0 0   XYZ
    dof rx ry rz
    limits (-20.0 45.0)
           (-30.0 30.0)
           (-30.0 30.0)
  end
  begin
     id 17 
     name lclavicle
     direction 0.952957 0.278766 0.119006  
     length 3.10112  
     axis 0 0 0   XYZ
    dof ry rz
    limits (-20.0 10.0)
           (0.0 20.0)
  end
  begin
     id 18 
     name lhumerus
     direction 1 -4.48972e-011 -1.63238e-028   
     length 5.82845   
     axis -180 -30 -90   XYZ
    dof rx ry rz
    limits (-60.0 90.0)
           (-90.0 90.0)
           (-90.0 90.0)
  end
  begin
     id 19
     name lradius
     direction 1 -4.48959e-011 1.45401e-026   
     length 3.49691   
     axis -180 -30 -90   XYZ
    dof rx
    limits (-10.0 170.0)
  end
  begin
     id 20
     name lwrist
     direction 1 -4.48945e-011 2.98015e-026   
     length 1.74845   
     axis -1.7599e-014 90 90   XYZ
    dof ry
    limits (-180.0 0.0)
 end
  begin
     id 21 
     name lhand
     direction 1 -4.4902e-011 5.9603e-026   
     length 0.674998   
     axis -3.80318e-014 90 90   XYZ
    dof rx rz
    limits (-90.0 90.0)
           (-45.0 45.0)
  end
  begin
     id 22 
     name lfingers
     direction 1 -4.48979e-011 1.19206e-025   
     length 0.544201   
     axis -7.60636e-014 90 90   XYZ
    dof rx
    limits (0.0 90.0)
  end
  begin
     id 23
     name lthumb
     direction 0.707107 -6.34941e-011 0.707107   
     length 0.781367   
     axis -90 45 2.85299e-015   XYZ
    dof rx rz
    limits (-45.0 45.0)
           (-45.0 45.0)
  end
  begin
     id 24 
     name rclavicle
     direction -0.967632 0.241887 0.0719654   
     length 3.53012  
     axis 0 0 0   XYZ 
    dof ry rz
    limits (-10.0 20.0)
           (-20.0 0.0)
  end
  begin
     id 25 
     name rhumerus
     direction -1 -4.4897e-011 6.87619e-028  
     length 5.45859   
     axis -180 30 90   XYZ
    dof rx ry rz
    limits (-90.0 60.0)
           (-90.0 90.0)
           (-90.0 90.0)
  end
  begin
     id 26 
     name rradius
     direction -1 -4.48967e-011 1.68055e-026   
     length 3.58491   
     axis -180 30 90   XYZ
    dof rx
    limits (-10.0 170.0)
  end
  begin
     id 27 
     name rwrist
     direction -1 -4.48976e-011 2.98015e-026   
     length 1.79245   
     axis -1.7599e-014 -90 -90   XYZ
    dof ry
    limits (-180.0 0.0)
  end
  begin
     id 28
     name rhand
     direction -1 -4.48996e-011 5.9603e-026   
     length 0.683735   
     axis -3.80318e-014 -90 -90   XYZ
    dof rx rz
    limits (-90.0 90.0)
           (-45.0 45.0)
  end
  begin
     id 29
     name rfingers
     direction -1 -4.48924e-011 1.19206e-025   
     length 0.551245   
     axis -7.60636e-014 -90 -90   XYZ
    dof rx
    limits (0.0 90.0)
  end
  begin
     id 30
     name rthumb
     direction -0.707107 -6.3492e-011 0.707107   
     length 0.791481   
     axis -90 -45 -2.85299e-015   XYZ
    dof rx rz
    limits (-45.0 45.0)
           (-45.0 45.0)
  end
:hierarchy
  begin
    root lhipjoint rhipjoint lowerback
    lhipjoint lfemur
    lfemur ltibia
    ltibia lfoot
    lfoot ltoes
    rhipjoint rfemur
    rfemur rtibia
    rtibia rfoot
    rfoot rtoes
    lowerback upperback
    upperback thorax
    thorax lowerneck lclavicle rclavicle
    lowerneck upperneck
    upperneck head
    lclavicle lhumerus
    lhumerus lradius
    lradius lwrist
    lwrist lhand lthumb
    lhand lfingers
    rclavicle rhumerus
    rhumerus rradius
    rradius rwrist
    rwrist rhand rthumb
    rhand rfingers
  end

#!OML:ASF F:\VICON\USERDATA\INSTALL\rory3\rory3.ASF
:FULLY-SPECIFIED
:DEGREES
1606
root 0.590877 18.1044 -31.1011 -173.853 -184.616 178.071
lowerback -2.54404 0.509426 -3.20398
upperback -2.6159 0.733361 0.628895
thorax -1.30874 0.425631 2.45149
lowerneck -6.95975 1.1599 1.32298
upperneck 3.77435 1.52487 -1.81404
head 2.4264 0.72191 -0.743878
rclavicle -1.46351e-014 6.36111e-015
rhumerus -47.0437 2.20467 -76.218
rradius 22.1046
rwrist 1.70568
rhand 1.74552 405.015
rfingers 7.12502
rthumb 27.2612 -343.035
lclavicle -1.46351e-014 6.36111e-015
lhumerus -36.8076 -16.5834 86.494
lradius 46.231
lwrist 66.0645
lhand -25.559 427.25
lfingers 7.12502
lthumb -179.028 442.773
rfemur -23.5806 7.69391 21.2134
rtibia 43.8163
rfoot -30.1588 -5.20704
rtoes 6.3344
lfemur -10.0931 -7.19325 -19.8089
ltibia 22.9897
lfoot -13.9826 9.98306
ltoes -8.89684
1607
root 0.668108 18.1013 -31.1434 -173.749 -184.372 178.186
lowerback -2.49751 0.410989 -3.60764
upperback -2.5634 0.607758 0.745919
thorax -1.27957 0.369004 2.79725
lowerneck -6.92619 1.27662 1.03275
upperneck 3.70243 1.69703 -1.63304
head 2.39291 0.809126 -0.62819
rclavicle -8.01273e-015 9.54166e-015
rhumerus -47.0289 4.05977 -77.3434
rradius 23.9148
rwrist -1.24061
rhand 0.303673 404.798
rfingers 7.12502
rthumb 25.8812 -343.461
lclavicle -8.01273e-015 9.54166e-015
lhumerus -36.7466 -16.3897 86.6696
lradius 46.0423
lwrist 65.9211
lhand -25.5553 427.189
lfingers 7.12502
lthumb -179.025 442.833
rfemur -23.9651 7.16965 20.7802
rtibia 44.0816
rfoot -29.5919 -4.63338
rtoes 6.07976
lfemur -10.2809 -6.6752 -20.1988
ltibia 22.9787
lfoot -13.8468 9.46843
ltoes -7.99914
1608
root 0.742215 18.1031 -31.1848 -173.591 -183.889 178.348
lowerback -2.5206 0.383748 -4.07299
upperback -2.44196 0.581364 0.81989
thorax -1.14695 0.358792 3.13589
lowerneck -7.20698 1.44897 0.980182
upperneck 3.7187 1.92689 -1.57184
head 2.45213 0.923329 -0.588347
rclavicle 2.32112e-014 6.75868e-015
rhumerus -46.6421 5.43685 -78.0759
rradius 25.4201
rwrist -3.09839
rhand -1.07603 404.941
rfingers 7.12502
rthumb 24.5593 -343.504
lclavicle 2.32112e-014 6.75868e-015
lhumerus -36.4968 -16.3053 86.7121
lradius 45.7826
lwrist 65.8728
lhand -25.8291 427.496
lfingers 7.12502
lthumb -179.289 442.525
rfemur -24.5305 6.73925 20.2878
rtibia 44.4826
rfoot -28.8782 -4.51226
rtoes 3.9635
lfemur -10.433 -6.37903 -20.6414
ltibia 22.8074
lfoot -13.7519 9.46177
ltoes -7.18749
1609
root 0.818645 18.1005 -31.2227 -173.456 -183.21 178.429
lowerback -2.50821 0.458264 -4.26947
upperback -2.31703 0.684542 0.736793
thorax -1.03583 0.407728 3.16264
lowerneck -7.88771 1.62225 1.05592
upperneck 4.04395 2.14149 -1.43624
head 2.69069 1.03203 -0.543924
rclavicle -1.81639e-014 -2.10712e-014
rhumerus -46.0675 5.88934 -78.5134
rradius 26.7314
rwrist -3.58297
rhand 2.82607 396.781
rfingers 7.12502
rthumb 28.2943 -351.102
lclavicle -1.81639e-014 -2.10712e-014
lhumerus -36.2089 -16.3567 86.5504
lradius 45.3178
lwrist 65.4666
lhand -25.7498 427.625
lfingers 7.12502
lthumb -179.213 442.397
rfemur -25.2008 6.26359 19.8774
rtibia 44.9382
rfoot -28.0093 -4.36094
rtoes 1.75221
lfemur -10.5584 -5.98178 -21.0506
ltibia 22.6345
lfoot -13.6475 9.72983
ltoes -7.33813
1610
root 0.892408 18.0955 -31.2579 -173.404 -182.466 178.584
lowerback -2.48538 0.561653 -4.64557
upperback -2.27738 0.827662 0.70517
thorax -1.02655 0.4832 3.34353
lowerneck -7.89896 1.74332 1.16317
upperneck 4.07159 2.29771 -1.52808
head 2.70756 1.10815 -0.584573
rclavicle -6.83943e-015 1.59028e-015
rhumerus -45.5801 6.06414 -78.6314
rradius 28.0806
rwrist -3.35053
rhand -5.28274 407.203
rfingers 7.12502
rthumb 20.5217 -341.733
lclavicle -6.83943e-015 1.59028e-015
lhumerus -36.1264 -16.4164 86.5501
lradius 44.6073
lwrist 64.9178
lhand -25.5359 427.558
lfingers 7.12502
lthumb -179.006 442.465
rfemur -25.7827 5.97274 19.3902
rtibia 45.4225
rfoot -27.3382 -3.92207
rtoes -0.232362
lfemur -10.5553 -5.4289 -21.5373
ltibia 22.4688
lfoot -13.6833 9.75987
ltoes -6.91993
1611
root 0.958229 18.0876 -31.2941 -173.39 -181.691 178.667
lowerback -2.49852 0.667045 -5.11739
upperback -2.27113 0.976748 0.766797
thorax -1.03782 0.56487 3.675
lowerneck -7.57629 1.85732 1.32285
upperneck 3.98157 2.44569 -1.69657
head 2.62455 1.18029 -0.661991
rclavicle -1.26725e-014 7.95139e-016
rhumerus -44.8287 5.78254 -78.4427
rradius 29.0464
rwrist -2.39973
rhand -5.94425 406.707
rfingers 7.12502
rthumb 19.8859 -342.296
lclavicle -1.26725e-014 7.95139e-016
lhumerus -36.1046 -16.2288 86.6132
lradius 43.8225
lwrist 64.2732
lhand -25.5308 427.389
lfingers 7.12502
lthumb -179.001 442.633
rfemur -26.2901 5.76014 18.9922
rtibia 45.879
rfoot -26.5283 -2.37422
rtoes 1.37731
lfemur -10.5385 -4.95611 -21.9308
ltibia 22.3844
lfoot -13.8548 9.9264
ltoes -6.22869
